<?xml version="1.0" encoding="UTF-8" standalone="no"?>
<!-- Created with Inkscape (http://www.inkscape.org/) -->

<svg
   width="281.39822mm"
   height="164.74545mm"
   viewBox="0 0 281.39822 164.74545"
   version="1.1"
   id="svg21144"
   inkscape:version="1.1.1 (3bf5ae0, 2021-09-20)"
   sodipodi:docname="xmonad-logo.svg"
   xmlns:inkscape="http://www.inkscape.org/namespaces/inkscape"
   xmlns:sodipodi="http://sodipodi.sourceforge.net/DTD/sodipodi-0.dtd"
   xmlns="http://www.w3.org/2000/svg"
   xmlns:svg="http://www.w3.org/2000/svg">
  <sodipodi:namedview
     id="namedview21146"
     pagecolor="#ffffff"
     bordercolor="#666666"
     borderopacity="1.0"
     inkscape:pageshadow="2"
     inkscape:pageopacity="0.0"
     inkscape:pagecheckerboard="0"
     inkscape:document-units="mm"
     showgrid="false"
     inkscape:zoom="1"
     inkscape:cx="333"
     inkscape:cy="219.5"
     inkscape:window-width="2028"
     inkscape:window-height="1112"
     inkscape:window-x="265"
     inkscape:window-y="174"
     inkscape:window-maximized="1"
     inkscape:current-layer="layer1" />
  <defs
     id="defs21141" />
  <g
     inkscape:label="Layer 1"
     inkscape:groupmode="layer"
     id="layer1"
     transform="translate(-21.654635,-18.018052)">
    <g
       id="g21115"
       transform="matrix(0.92855207,0,0,0.9187763,62.812513,38.422996)">
      <path
         style="fill:none;fill-rule:evenodd;stroke:#000000;stroke-width:0.221567px;stroke-linecap:butt;stroke-linejoin:miter;stroke-opacity:1"
         d="M 181.20129,117.34043 H 164.76796"
         id="path13364"
         inkscape:connector-type="polyline"
         inkscape:connector-curvature="0" />
      <path
         style="fill:none;stroke-width:0.187089"
         d="M 23.10545,68.391918 V 19.561776 h 7.662157 7.662159 l 0.0917,0.608039 c 0.350967,2.327106 0.491508,18.264886 0.489151,55.471786 l -0.0026,41.580419 H 31.05672 23.10545 Z"
         id="path15280" />
      <path
         style="fill:none;stroke-width:0.187089"
         d="M 23.10545,68.391918 V 19.561776 h 7.662157 7.662159 l 0.0917,0.608039 c 0.350967,2.327106 0.491508,18.264886 0.489151,55.471786 l -0.0026,41.580419 H 31.05672 23.10545 Z"
         id="path15319" />
      <path
         style="fill:#5e5085;fill-opacity:1;stroke-width:0.187089"
         d="M 96.119417,117.17525 C 96.018484,117.04663 90.618013,107.8322 84.11837,96.698781 L 72.300835,76.456165 75.250568,70.553158 c 1.622351,-3.246658 2.993943,-5.903014 3.047976,-5.903014 0.05404,0 5.328018,9.113556 11.71996,20.252343 6.391941,11.138777 11.735176,20.252313 11.873856,20.252313 0.13876,0 11.35713,-19.244879 24.94724,-42.79649 l 24.69509,-42.796534 h 14.7368 14.73679 v 48.830142 48.830102 h -8.04481 -8.04481 V 74.191667 c 0,-25.144579 -0.0695,-43.030394 -0.16717,-43.030394 -0.0919,0 -11.35235,19.405309 -25.02311,43.122914 l -24.85594,43.122873 -9.28475,0.001 c -7.206197,7.9e-4 -9.325837,-0.0513 -9.468273,-0.23284 z"
         id="path15471" />
      <path
         style="fill:#5e5085;fill-opacity:1;stroke-width:0.187089"
         d="M 52.243669,42.127692 C 45.066942,29.843238 39.195076,19.739387 39.195076,19.674687 c 0,-0.0647 3.008712,-0.09553 6.686023,-0.0685 l 6.686023,0.04913 9.024797,15.715448 c 4.963637,8.643498 9.214006,16.069193 9.445266,16.501546 l 0.420465,0.786101 -2.98831,5.898105 c -1.643568,3.243958 -3.030778,5.900002 -3.082692,5.902322 -0.05191,0.0024 -5.966254,-10.0467 -13.142979,-22.33115 z"
         id="path15510" />
      <path
         style="fill:#990202;fill-opacity:1;stroke-width:0.187089"
         d="M 61.227318,69.129667 C 59.849252,66.776124 39.878021,32.115313 39.603534,31.600789 39.402818,31.224546 38.89407,20.922952 39.067634,20.749388 c 0.115599,-0.115602 25.946843,44.183942 25.935863,44.478958 -0.0054,0.145034 -0.624491,1.479679 -1.37576,2.965878 l -1.365943,2.702181 z"
         id="path15664" />
      <path
         style="fill:#ff8080;fill-opacity:1;stroke-width:0.187089"
         d="M 62.169788,70.534078 C 60.733373,68.114693 40.247001,32.50424 39.895676,31.816083 39.58487,31.207298 39.194697,26.29122 39.195557,22.994782 l 5.29e-4,-1.842751 0.680252,1.122531 c 2.920717,4.81969 22.879698,39.071412 24.269591,41.649189 l 0.768406,1.425128 -1.319491,2.681462 c -0.72572,1.474804 -1.366972,2.601487 -1.425008,2.503737 z"
         id="path16554" />
      <path
         style="fill:#990202;fill-opacity:1;stroke-width:0.187089"
         d="m 79.082457,100.11589 -9.967992,-17.293181 1.461479,-2.918385 1.461477,-2.918382 11.735673,20.086066 c 6.454618,11.047332 11.73567,20.142552 11.73567,20.211582 0,0.069 -1.453121,0.12552 -3.229155,0.12552 h -3.229157 z"
         id="path15703" />
      <path
         style="fill:#990202;fill-opacity:1;stroke-width:0.187089"
         d="m 67.418103,79.880017 c -0.769623,-1.327864 -2.178646,-3.771729 -3.131159,-5.43082 l -1.731841,-3.016515 1.427377,-2.849996 c 0.785059,-1.567501 1.456444,-2.819956 1.491964,-2.783232 0.03552,0.03672 1.459622,2.450349 3.164666,5.363611 l 3.10008,5.29685 -1.460886,2.917202 -1.460884,2.917195 z"
         id="path15742" />
      <path
         style="fill:#ff8080;fill-opacity:1;stroke-width:0.268264"
         d="m 40.012707,115.61684 c 1.871872,-4.59448 31.074569,-63.314576 31.341288,-63.020313 0.10763,0.118753 2.073519,3.531698 4.368641,7.584332 l 4.172941,7.368422 -12.242832,24.674034 -12.242835,24.673975 -7.98859,0.0716 -7.988588,0.0716 z"
         id="path16320" />
      <path
         style="fill:#ff8080;fill-opacity:1;stroke-width:0.18832"
         d="m 73.107553,64.256279 c -1.023907,-1.739561 -2.369156,-4.054487 -2.989444,-5.14428 l -1.127801,-1.981438 8.477235,-16.943302 8.477232,-16.9433 3.286764,-0.0043 c 1.807719,-0.0024 4.358132,0.05062 5.667584,0.117766 l 2.380825,0.122083 -5.358479,10.781862 c -9.14291,18.396574 -16.616674,33.157765 -16.788165,33.157765 -0.09026,0 -1.001846,-1.423278 -2.025751,-3.162838 z"
         id="path16359" />
      <path
         style="fill:#ff8080;fill-opacity:1;stroke-width:0.18832"
         d="M 77.839901,64.36838 C 76.815994,62.628819 75.470745,60.313893 74.850457,59.2241 l -1.127801,-1.981438 8.477235,-16.943302 8.477232,-16.9433 3.286764,-0.0043 c 1.807719,-0.0024 4.358132,0.05062 5.667586,0.117766 l 2.380827,0.122083 -5.358483,10.781862 c -9.14291,18.396574 -16.616674,33.157765 -16.788165,33.157765 -0.09026,0 -1.001846,-1.423278 -2.025751,-3.162838 z"
         id="path16359-7" />
      <path
         style="fill:#ff8080;fill-opacity:1;stroke-width:0.187089"
         d="m 65.795437,76.846552 c -1.664954,-2.891832 -3.027188,-5.35794 -3.027188,-5.480237 0,-0.12229 0.605192,-1.384174 1.344874,-2.804174 l 1.344875,-2.581818 1.290838,2.188012 c 0.709962,1.203409 2.097366,3.567407 3.083121,5.253328 l 1.79228,3.065302 -1.400808,2.808735 -1.400804,2.808732 z"
         id="path16437" />
      <path
         style="fill:#ff8080;fill-opacity:1;stroke-width:0.187089"
         d="M 88.344456,115.95917 C 73.162138,89.62868 69.318038,82.912919 69.326166,82.733639 c 0.0054,-0.11909 0.616212,-1.415981 1.357366,-2.881992 l 1.347549,-2.665455 8.603938,14.732676 c 4.732168,8.102942 9.969442,17.089962 11.638383,19.971132 l 3.034445,5.23848 -1.630111,0.1205 c -0.896562,0.0663 -2.275215,0.12942 -3.063676,0.14032 l -1.433563,0.0198 z"
         id="path16593" />
      <path
         style="fill:#5e5085;fill-opacity:1;stroke-width:0.187089"
         d="M 24.692951,68.391919 V 19.561776 h 7.662157 7.662158 l 0.0917,0.60804 c 0.350967,2.327105 0.491509,18.264885 0.489151,55.471785 l -0.0026,41.580419 h -7.951252 -7.95127 z"
         id="path15358"
         sodipodi:nodetypes="ccccsccccc" />
      <a rel="license" href="http://creativecommons.org/licenses/by/4.0/"><img alt="Creative Commons License" style="border-width:0" src="https://i.creativecommons.org/l/by/4.0/88x31.png" /></a><br />This <span xmlns:dct="http://purl.org/dc/terms/" href="http://purl.org/dc/dcmitype/StillImage" rel="dct:type">work</span> is licensed under a <a rel="license" href="http://creativecommons.org/licenses/by/4.0/">Creative Commons Attribution 4.0 International License</a>.
    </g>
  </g>
</svg>
